<svg xmlns="http://www.w3.org/2000/svg" width="39" height="34" viewBox="0 0 39 34">
    <defs>
        <linearGradient id="7h459s9d1a" x1="77.556%" x2="50%" y1="-16.087%" y2="100%">
            <stop offset="0%" stop-color="#45B1F7"/>
            <stop offset="100%" stop-color="#2179EB"/>
        </linearGradient>
    </defs>
    <g fill="none" fill-rule="evenodd">
        <g>
            <g>
                <path fill="url(#7h459s9d1a)" d="M13.743 6.089c6.292-6.713 14.729-8.07 20.119-3.095 5.39 4.975 5.676 18.707 0 24.761-5.677 6.055-18.76 4.113-23.215 0C6.192 23.643 7.45 12.801 13.743 6.09z" transform="translate(-8 -16) translate(8 16)"/>
                <path fill="#FFF" fill-rule="nonzero" d="M15 9c7.18 0 13 5.596 13 12.5S22.18 34 15 34c-.552 0-1-.43-1-.962 0-.53.448-.961 1-.961 6.075 0 11-4.736 11-10.577s-4.925-10.577-11-10.577S4 15.66 4 21.5c0 2.489.899 4.836 2.484 6.696l-.08-3.177c-.013-.545.418-.975.962-.962.545.014.997.466 1.01 1.01l.14 5.58c.014.544-.417.974-.961.96l-5.579-.138c-.545-.014-.997-.466-1.01-1.011-.014-.545.416-.975.96-.962l3.15.08C3.116 27.351 2 24.512 2 21.5 2 14.596 7.82 9 15 9zm.083 6c.598 0 1.083.43 1.083.962v6.271l3.517 3.125c.423.375.423.984 0 1.36-.423.376-1.109.376-1.532 0l-3.834-3.406c-.203-.18-.317-.425-.317-.68v-6.67c0-.531.485-.962 1.083-.962z" transform="translate(-8 -16) translate(8 16)"/>
            </g>
        </g>
    </g>
</svg>
